<svg width="120" height="50" viewBox="0 0 380 63" fill="none" xmlns="http://www.w3.org/2000/svg">
  <path
    d="M0.190088 63V7H10.1901V53.88H48.1901V63H0.190088ZM66.4382 63C62.3315 63 59.3715 62.12 57.5582 60.36C55.7982 58.5467 54.9182 55.5867 54.9182 51.48V47.08C54.9182 42.9733 55.7982 40.04 57.5582 38.28C59.3715 36.4667 62.3315 35.56 66.4382 35.56H96.3582V27.32H59.7182V18.2H94.8382C98.9449 18.2 101.878 19.1067 103.638 20.92C105.452 22.68 106.358 25.6133 106.358 29.72V63H66.4382ZM96.3582 44.68H68.7582C67.3715 44.68 66.3849 44.9733 65.7982 45.56C65.2115 46.1467 64.9182 47.1333 64.9182 48.52V50.04C64.9182 51.4267 65.2115 52.4133 65.7982 53C66.3849 53.5867 67.3715 53.88 68.7582 53.88H96.3582V44.68ZM117.534 63V29.72C117.534 25.6133 118.414 22.68 120.174 20.92C121.987 19.1067 124.947 18.2 129.054 18.2H152.894V27.32H127.614V63H117.534ZM159.331 51.56V29.72C159.331 25.6133 160.211 22.68 161.971 20.92C163.784 19.1067 166.744 18.2 170.851 18.2H197.651C201.757 18.2 204.691 19.1067 206.451 20.92C208.264 22.68 209.171 25.6133 209.171 29.72V34.28H199.171V27.32H169.331V53.88H199.171V46.12H209.171V51.48C209.171 55.5867 208.264 58.5467 206.451 60.36C204.691 62.12 201.757 63 197.651 63H170.851C166.744 63 163.784 62.12 161.971 60.36C160.211 58.5467 159.331 55.5867 159.331 51.48V51.56ZM230.678 63H220.678V18.2H230.678V63ZM230.678 10.6H220.678V0.599998H230.678V10.6ZM242.69 2.2H252.69V18.2H282.61C286.717 18.2 289.65 19.1067 291.41 20.92C293.223 22.68 294.13 25.6133 294.13 29.72V51.48C294.13 55.5867 293.223 58.5467 291.41 60.36C289.65 62.12 286.717 63 282.61 63H242.69V2.2ZM279.49 53.88C281.143 53.88 282.317 53.5333 283.01 52.84C283.757 52.0933 284.13 50.8933 284.13 49.24V31.96C284.13 30.3067 283.757 29.1333 283.01 28.44C282.317 27.6933 281.143 27.32 279.49 27.32H252.69V53.88H279.49ZM306.146 63V2.2H316.146V63H306.146ZM338.159 53.88H376.399V63H339.679C335.572 63 332.612 62.12 330.799 60.36C329.039 58.5467 328.159 55.5867 328.159 51.48V29.72C328.159 25.6133 329.039 22.68 330.799 20.92C332.612 19.1067 335.572 18.2 339.679 18.2H368.079C372.186 18.2 375.119 19.1067 376.879 20.92C378.692 22.68 379.599 25.6133 379.599 29.72V34.12C379.599 38.2267 378.692 41.1867 376.879 43C375.119 44.76 372.186 45.64 368.079 45.64H338.159V53.88ZM365.759 36.52C367.146 36.52 368.132 36.2267 368.719 35.64C369.306 35.0533 369.599 34.0667 369.599 32.68V31.16C369.599 29.7733 369.306 28.7867 368.719 28.2C368.132 27.6133 367.146 27.32 365.759 27.32H338.159V36.52H365.759Z"
    fill="white" />
</svg>
  