<svg width="30" height="25" viewBox="0 0 84 84" fill="none" xmlns="http://www.w3.org/2000/svg">
  <path fill-rule="evenodd" clip-rule="evenodd"
    d="M41.66 0C30.6137 0 20.0199 4.38811 12.209 12.199C4.39812 20.0099 0.0100098 30.6037 0.0100098 41.65C0.0100098 52.6963 4.39812 63.2901 12.209 71.101C20.0199 78.9119 30.6137 83.3 41.66 83.3V0Z"
    fill="#2571EA" />
  <path fill-rule="evenodd" clip-rule="evenodd"
    d="M83.66 83.3H41.66C30.6163 83.2947 20.0266 78.9046 12.2184 71.0945C4.41026 63.2845 0.0226692 52.6937 0.0200195 41.65H43.84C54.3672 41.9263 64.3822 46.2524 71.7996 53.7276C79.2171 61.2028 83.4654 71.251 83.66 81.78V83.3Z"
    fill="url(#paint0_linear_40_2166)" />
  <path fill-rule="evenodd" clip-rule="evenodd"
    d="M41.6601 41.64H6.75175e-05C-0.015461 50.2375 2.64795 58.6262 7.62006 65.64L7.73008 65.79C11.5884 71.1937 16.6786 75.6005 22.579 78.6455C28.4794 81.6905 35.0203 83.286 41.6601 83.3V41.64Z"
    fill="#3470C6" />
  <defs>
    <linearGradient id="paint0_linear_40_2166" x1="-0.00998047" y1="62.47" x2="83.66" y2="62.47"
      gradientUnits="userSpaceOnUse">
      <stop stop-color="#0C6AEE" />
      <stop offset="0.17" stop-color="#5F83E1" />
      <stop offset="0.31" stop-color="#A196D7" />
      <stop offset="0.49" stop-color="#BE9CC5" />
      <stop offset="0.78" stop-color="#E7A5AD" />
      <stop offset="0.93" stop-color="#F7A8A3" />
    </linearGradient>
  </defs>
</svg>
  